<?xml version="1.0" encoding="UTF-8" standalone="no"?>
<!DOCTYPE svg PUBLIC "-//W3C//DTD SVG 1.1//EN"
 "http://www.w3.org/Graphics/SVG/1.1/DTD/svg11.dtd">
<!-- Generated by graphviz version 2.38.0 (20140413.2041)
 -->
<!-- Title: G Pages: 1 -->
<svg width="486pt" height="942pt"
 viewBox="0.00 0.00 485.87 942.00" xmlns="http://www.w3.org/2000/svg" xmlns:xlink="http://www.w3.org/1999/xlink">
<g id="graph0" class="graph" transform="scale(1 1) rotate(0) translate(4 938)">
<title>G</title>
<polygon fill="white" stroke="none" points="-4,4 -4,-938 481.873,-938 481.873,4 -4,4"/>
<g id="clust1" class="cluster"><title>cluster_Global</title>
<path fill="none" stroke="gray" d="M362.873,-8C362.873,-8 457.873,-8 457.873,-8 463.873,-8 469.873,-14 469.873,-20 469.873,-20 469.873,-914 469.873,-914 469.873,-920 463.873,-926 457.873,-926 457.873,-926 362.873,-926 362.873,-926 356.873,-926 350.873,-920 350.873,-914 350.873,-914 350.873,-20 350.873,-20 350.873,-14 356.873,-8 362.873,-8"/>
<text text-anchor="middle" x="410.373" y="-913.2" font-family="Times,serif" font-size="11.00" fill="gray">Global</text>
</g>
<g id="clust2" class="cluster"><title>cluster_\Radchasay</title>
<path fill="none" stroke="gray" d="M370.873,-16C370.873,-16 449.873,-16 449.873,-16 455.873,-16 461.873,-22 461.873,-28 461.873,-28 461.873,-886 461.873,-886 461.873,-892 455.873,-898 449.873,-898 449.873,-898 370.873,-898 370.873,-898 364.873,-898 358.873,-892 358.873,-886 358.873,-886 358.873,-28 358.873,-28 358.873,-22 364.873,-16 370.873,-16"/>
<text text-anchor="middle" x="410.373" y="-885.2" font-family="Times,serif" font-size="11.00" fill="gray">Radchasay</text>
</g>
<g id="clust3" class="cluster"><title>cluster_\Radchasay\Content</title>
<path fill="none" stroke="gray" d="M382.373,-798C382.373,-798 438.373,-798 438.373,-798 444.373,-798 450.373,-804 450.373,-810 450.373,-810 450.373,-858 450.373,-858 450.373,-864 444.373,-870 438.373,-870 438.373,-870 382.373,-870 382.373,-870 376.373,-870 370.373,-864 370.373,-858 370.373,-858 370.373,-810 370.373,-810 370.373,-804 376.373,-798 382.373,-798"/>
<text text-anchor="middle" x="410.373" y="-857.2" font-family="Times,serif" font-size="11.00" fill="gray">Content</text>
</g>
<g id="clust4" class="cluster"><title>cluster_\Radchasay\Session</title>
<path fill="none" stroke="gray" d="M382.373,-718C382.373,-718 438.373,-718 438.373,-718 444.373,-718 450.373,-724 450.373,-730 450.373,-730 450.373,-778 450.373,-778 450.373,-784 444.373,-790 438.373,-790 438.373,-790 382.373,-790 382.373,-790 376.373,-790 370.373,-784 370.373,-778 370.373,-778 370.373,-730 370.373,-730 370.373,-724 376.373,-718 382.373,-718"/>
<text text-anchor="middle" x="410.373" y="-777.2" font-family="Times,serif" font-size="11.00" fill="gray">Session</text>
</g>
<g id="clust5" class="cluster"><title>cluster_\Radchasay\DiceGame</title>
<path fill="none" stroke="gray" d="M387.373,-584C387.373,-584 433.373,-584 433.373,-584 439.373,-584 445.373,-590 445.373,-596 445.373,-596 445.373,-698 445.373,-698 445.373,-704 439.373,-710 433.373,-710 433.373,-710 387.373,-710 387.373,-710 381.373,-710 375.373,-704 375.373,-698 375.373,-698 375.373,-596 375.373,-596 375.373,-590 381.373,-584 387.373,-584"/>
<text text-anchor="middle" x="410.373" y="-697.2" font-family="Times,serif" font-size="11.00" fill="gray">DiceGame</text>
</g>
<g id="clust6" class="cluster"><title>cluster_\Radchasay\App</title>
<path fill="none" stroke="gray" d="M387.373,-504C387.373,-504 433.373,-504 433.373,-504 439.373,-504 445.373,-510 445.373,-516 445.373,-516 445.373,-564 445.373,-564 445.373,-570 439.373,-576 433.373,-576 433.373,-576 387.373,-576 387.373,-576 381.373,-576 375.373,-570 375.373,-564 375.373,-564 375.373,-516 375.373,-516 375.373,-510 381.373,-504 387.373,-504"/>
<text text-anchor="middle" x="410.373" y="-563.2" font-family="Times,serif" font-size="11.00" fill="gray">App</text>
</g>
<g id="clust7" class="cluster"><title>cluster_\Radchasay\Block</title>
<path fill="none" stroke="gray" d="M387.373,-424C387.373,-424 433.373,-424 433.373,-424 439.373,-424 445.373,-430 445.373,-436 445.373,-436 445.373,-484 445.373,-484 445.373,-490 439.373,-496 433.373,-496 433.373,-496 387.373,-496 387.373,-496 381.373,-496 375.373,-490 375.373,-484 375.373,-484 375.373,-436 375.373,-436 375.373,-430 381.373,-424 387.373,-424"/>
<text text-anchor="middle" x="410.373" y="-483.2" font-family="Times,serif" font-size="11.00" fill="gray">Block</text>
</g>
<g id="clust8" class="cluster"><title>cluster_\Radchasay\User</title>
<path fill="none" stroke="gray" d="M387.373,-344C387.373,-344 433.373,-344 433.373,-344 439.373,-344 445.373,-350 445.373,-356 445.373,-356 445.373,-404 445.373,-404 445.373,-410 439.373,-416 433.373,-416 433.373,-416 387.373,-416 387.373,-416 381.373,-416 375.373,-410 375.373,-404 375.373,-404 375.373,-356 375.373,-356 375.373,-350 381.373,-344 387.373,-344"/>
<text text-anchor="middle" x="410.373" y="-403.2" font-family="Times,serif" font-size="11.00" fill="gray">User</text>
</g>
<g id="clust9" class="cluster"><title>cluster_\Radchasay\Cookie</title>
<path fill="none" stroke="gray" d="M385.873,-264C385.873,-264 434.873,-264 434.873,-264 440.873,-264 446.873,-270 446.873,-276 446.873,-276 446.873,-324 446.873,-324 446.873,-330 440.873,-336 434.873,-336 434.873,-336 385.873,-336 385.873,-336 379.873,-336 373.873,-330 373.873,-324 373.873,-324 373.873,-276 373.873,-276 373.873,-270 379.873,-264 385.873,-264"/>
<text text-anchor="middle" x="410.373" y="-323.2" font-family="Times,serif" font-size="11.00" fill="gray">Cookie</text>
</g>
<g id="clust10" class="cluster"><title>cluster_\Radchasay\Navbar</title>
<path fill="none" stroke="gray" d="M385.873,-24C385.873,-24 434.873,-24 434.873,-24 440.873,-24 446.873,-30 446.873,-36 446.873,-36 446.873,-84 446.873,-84 446.873,-90 440.873,-96 434.873,-96 434.873,-96 385.873,-96 385.873,-96 379.873,-96 373.873,-90 373.873,-84 373.873,-84 373.873,-36 373.873,-36 373.873,-30 379.873,-24 385.873,-24"/>
<text text-anchor="middle" x="410.373" y="-83.2" font-family="Times,serif" font-size="11.00" fill="gray">Navbar</text>
</g>
<g id="clust11" class="cluster"><title>cluster_\Radchasay\Dropdown</title>
<path fill="none" stroke="gray" d="M378.873,-184C378.873,-184 441.873,-184 441.873,-184 447.873,-184 453.873,-190 453.873,-196 453.873,-196 453.873,-244 453.873,-244 453.873,-250 447.873,-256 441.873,-256 441.873,-256 378.873,-256 378.873,-256 372.873,-256 366.873,-250 366.873,-244 366.873,-244 366.873,-196 366.873,-196 366.873,-190 372.873,-184 378.873,-184"/>
<text text-anchor="middle" x="410.373" y="-243.2" font-family="Times,serif" font-size="11.00" fill="gray">Dropdown</text>
</g>
<g id="clust12" class="cluster"><title>cluster_\Radchasay\Database</title>
<path fill="none" stroke="gray" d="M382.373,-104C382.373,-104 438.373,-104 438.373,-104 444.373,-104 450.373,-110 450.373,-116 450.373,-116 450.373,-164 450.373,-164 450.373,-170 444.373,-176 438.373,-176 438.373,-176 382.373,-176 382.373,-176 376.373,-176 370.373,-170 370.373,-164 370.373,-164 370.373,-116 370.373,-116 370.373,-110 376.373,-104 382.373,-104"/>
<text text-anchor="middle" x="410.373" y="-163.2" font-family="Times,serif" font-size="11.00" fill="gray">Database</text>
</g>
<!-- \\Radchasay\\Content\\Content -->
<g id="node1" class="node"><title>\\Radchasay\\Content\\Content</title>
<polygon fill="none" stroke="black" points="442.373,-842 378.373,-842 378.373,-806 442.373,-806 442.373,-842"/>
<text text-anchor="middle" x="410.373" y="-821.2" font-family="Courier,monospace" font-size="11.00">Content</text>
</g>
<!-- \\Anax\\Common\\AppInjectableInterface -->
<g id="node12" class="node"><title>\\Anax\\Common\\AppInjectableInterface</title>
<ellipse fill="none" stroke="black" cx="151.437" cy="-210" rx="151.373" ry="18"/>
<text text-anchor="middle" x="151.437" y="-206.3" font-family="Times,serif" font-size="14.00" fill="gray">\Anax\Common\AppInjectableInterface</text>
</g>
<!-- \\Radchasay\\Content\\Content&#45;&gt;\\Anax\\Common\\AppInjectableInterface -->
<g id="edge1" class="edge"><title>\\Radchasay\\Content\\Content&#45;&gt;\\Anax\\Common\\AppInjectableInterface</title>
<path fill="none" stroke="black" stroke-dasharray="1,5" d="M378.078,-813.355C368.26,-808.717 358.109,-802.38 350.873,-794 201.246,-620.708 163.135,-329.515 154.637,-238.239"/>
<polygon fill="none" stroke="black" points="158.11,-237.773 153.742,-228.12 151.137,-238.389 158.11,-237.773"/>
</g>
<!-- \\Radchasay\\Session\\Session -->
<g id="node2" class="node"><title>\\Radchasay\\Session\\Session</title>
<polygon fill="none" stroke="black" points="442.373,-762 378.373,-762 378.373,-726 442.373,-726 442.373,-762"/>
<text text-anchor="middle" x="410.373" y="-741.2" font-family="Courier,monospace" font-size="11.00">Session</text>
</g>
<!-- \\Radchasay\\DiceGame\\Dice -->
<g id="node3" class="node"><title>\\Radchasay\\DiceGame\\Dice</title>
<polygon fill="none" stroke="black" points="437.373,-682 383.373,-682 383.373,-646 437.373,-646 437.373,-682"/>
<text text-anchor="middle" x="410.373" y="-661.2" font-family="Courier,monospace" font-size="11.00">Dice</text>
</g>
<!-- \\Radchasay\\DiceGame\\Game -->
<g id="node4" class="node"><title>\\Radchasay\\DiceGame\\Game</title>
<polygon fill="none" stroke="black" points="437.373,-628 383.373,-628 383.373,-592 437.373,-592 437.373,-628"/>
<text text-anchor="middle" x="410.373" y="-607.2" font-family="Courier,monospace" font-size="11.00">Game</text>
</g>
<!-- \\Radchasay\\App\\App -->
<g id="node5" class="node"><title>\\Radchasay\\App\\App</title>
<polygon fill="none" stroke="black" points="437.373,-548 383.373,-548 383.373,-512 437.373,-512 437.373,-548"/>
<text text-anchor="middle" x="410.373" y="-527.2" font-family="Courier,monospace" font-size="11.00">App</text>
</g>
<!-- \\Radchasay\\Block\\Block -->
<g id="node6" class="node"><title>\\Radchasay\\Block\\Block</title>
<polygon fill="none" stroke="black" points="437.373,-468 383.373,-468 383.373,-432 437.373,-432 437.373,-468"/>
<text text-anchor="middle" x="410.373" y="-447.2" font-family="Courier,monospace" font-size="11.00">Block</text>
</g>
<!-- \\Radchasay\\User\\User -->
<g id="node7" class="node"><title>\\Radchasay\\User\\User</title>
<polygon fill="none" stroke="black" points="437.373,-388 383.373,-388 383.373,-352 437.373,-352 437.373,-388"/>
<text text-anchor="middle" x="410.373" y="-367.2" font-family="Courier,monospace" font-size="11.00">User</text>
</g>
<!-- \\Radchasay\\User\\User&#45;&gt;\\Anax\\Common\\AppInjectableInterface -->
<g id="edge2" class="edge"><title>\\Radchasay\\User\\User&#45;&gt;\\Anax\\Common\\AppInjectableInterface</title>
<path fill="none" stroke="black" stroke-dasharray="1,5" d="M383.136,-357.291C372.935,-352.156 361.232,-346.027 350.873,-340 291.466,-305.438 225.187,-260.694 186.24,-233.73"/>
<polygon fill="none" stroke="black" points="188.098,-230.758 177.888,-227.929 184.105,-236.508 188.098,-230.758"/>
</g>
<!-- \\Radchasay\\Cookie\\Cookie -->
<g id="node8" class="node"><title>\\Radchasay\\Cookie\\Cookie</title>
<polygon fill="none" stroke="black" points="438.873,-308 381.873,-308 381.873,-272 438.873,-272 438.873,-308"/>
<text text-anchor="middle" x="410.373" y="-287.2" font-family="Courier,monospace" font-size="11.00">Cookie</text>
</g>
<!-- \\Radchasay\\Navbar\\Navbar -->
<g id="node9" class="node"><title>\\Radchasay\\Navbar\\Navbar</title>
<polygon fill="none" stroke="black" points="438.873,-68 381.873,-68 381.873,-32 438.873,-32 438.873,-68"/>
<text text-anchor="middle" x="410.373" y="-47.2" font-family="Courier,monospace" font-size="11.00">Navbar</text>
</g>
<!-- \\Radchasay\\Navbar\\Navbar&#45;&gt;\\Anax\\Common\\AppInjectableInterface -->
<g id="edge4" class="edge"><title>\\Radchasay\\Navbar\\Navbar&#45;&gt;\\Anax\\Common\\AppInjectableInterface</title>
<path fill="none" stroke="black" stroke-dasharray="1,5" d="M381.827,-67.4121C360.346,-80.9705 329.749,-100.239 302.873,-117 264.458,-140.957 220.39,-168.168 189.924,-186.938"/>
<polygon fill="none" stroke="black" points="187.997,-184.014 181.318,-192.238 191.668,-189.974 187.997,-184.014"/>
</g>
<!-- \\Anax\\Common\\ConfigureInterface -->
<g id="node13" class="node"><title>\\Anax\\Common\\ConfigureInterface</title>
<ellipse fill="none" stroke="black" cx="151.437" cy="-90" rx="137.576" ry="18"/>
<text text-anchor="middle" x="151.437" y="-86.3" font-family="Times,serif" font-size="14.00" fill="gray">\Anax\Common\ConfigureInterface</text>
</g>
<!-- \\Radchasay\\Navbar\\Navbar&#45;&gt;\\Anax\\Common\\ConfigureInterface -->
<g id="edge3" class="edge"><title>\\Radchasay\\Navbar\\Navbar&#45;&gt;\\Anax\\Common\\ConfigureInterface</title>
<path fill="none" stroke="black" stroke-dasharray="1,5" d="M381.387,-54.3568C350.059,-59.234 297.537,-67.4107 250.695,-74.7031"/>
<polygon fill="none" stroke="black" points="250.137,-71.2476 240.795,-76.2443 251.214,-78.1643 250.137,-71.2476"/>
</g>
<!-- \\Radchasay\\Dropdown\\Dropdown -->
<g id="node10" class="node"><title>\\Radchasay\\Dropdown\\Dropdown</title>
<polygon fill="none" stroke="black" points="445.873,-228 374.873,-228 374.873,-192 445.873,-192 445.873,-228"/>
<text text-anchor="middle" x="410.373" y="-207.2" font-family="Courier,monospace" font-size="11.00">Dropdown</text>
</g>
<!-- \\Radchasay\\Dropdown\\Dropdown&#45;&gt;\\Anax\\Common\\AppInjectableInterface -->
<g id="edge5" class="edge"><title>\\Radchasay\\Dropdown\\Dropdown&#45;&gt;\\Anax\\Common\\AppInjectableInterface</title>
<path fill="none" stroke="black" stroke-dasharray="1,5" d="M374.722,-210C357.822,-210 336.16,-210 313.012,-210"/>
<polygon fill="none" stroke="black" points="313.01,-206.5 303.01,-210 313.01,-213.5 313.01,-206.5"/>
</g>
<!-- \\Radchasay\\Database\\Connect -->
<g id="node11" class="node"><title>\\Radchasay\\Database\\Connect</title>
<polygon fill="none" stroke="black" points="442.373,-148 378.373,-148 378.373,-112 442.373,-112 442.373,-148"/>
<text text-anchor="middle" x="410.373" y="-127.2" font-family="Courier,monospace" font-size="11.00">Connect</text>
</g>
<!-- \\Radchasay\\Database\\Connect&#45;&gt;\\Anax\\Common\\AppInjectableInterface -->
<g id="edge7" class="edge"><title>\\Radchasay\\Database\\Connect&#45;&gt;\\Anax\\Common\\AppInjectableInterface</title>
<path fill="none" stroke="black" stroke-dasharray="1,5" d="M378.125,-139.73C338.171,-152.17 268.005,-174.017 216.486,-190.058"/>
<polygon fill="none" stroke="black" points="215.278,-186.768 206.77,-193.083 217.359,-193.451 215.278,-186.768"/>
</g>
<!-- \\Radchasay\\Database\\Connect&#45;&gt;\\Anax\\Common\\ConfigureInterface -->
<g id="edge6" class="edge"><title>\\Radchasay\\Database\\Connect&#45;&gt;\\Anax\\Common\\ConfigureInterface</title>
<path fill="none" stroke="black" stroke-dasharray="1,5" d="M378.125,-125.135C346.543,-120.219 296.086,-112.363 250.882,-105.326"/>
<polygon fill="none" stroke="black" points="251.146,-101.825 240.726,-103.745 250.069,-108.742 251.146,-101.825"/>
</g>
</g>
</svg>
